<svg xmlns="http://www.w3.org/2000/svg" viewBox="0 0 22.64 8.93"><defs><style>.cls-1{fill:#fff;}</style></defs><g id="Layer_2" data-name="Layer 2"><g id="Layer_1-2" data-name="Layer 1"><path class="cls-1" d="M.86,7.94H5.41v.77H0V.22H5.27V1H.86V3.9H5v.77H.86Z"/><path class="cls-1" d="M11.3,7.25h0l2.84-7h1.32V8.71h-.86V1.33h0L11.52,8.71h-.46L8,1.33H8V8.71H7.1V.22H8.42Z"/><path class="cls-1" d="M21.85,1.58A2,2,0,0,0,21.14,1,2.26,2.26,0,0,0,19.46.83a1.76,1.76,0,0,0-.58.29,1.49,1.49,0,0,0-.43.5,1.46,1.46,0,0,0-.16.71,1.36,1.36,0,0,0,.15.67,1.39,1.39,0,0,0,.42.45,2.46,2.46,0,0,0,.58.31l.69.24c.3.09.59.2.89.31a3.16,3.16,0,0,1,.81.44,2.17,2.17,0,0,1,.59.68,2.21,2.21,0,0,1,.22,1.05,2.38,2.38,0,0,1-.24,1.1,2.23,2.23,0,0,1-.63.76,2.51,2.51,0,0,1-.88.44,3.53,3.53,0,0,1-1,.15,3.92,3.92,0,0,1-.76-.08,3.74,3.74,0,0,1-.74-.23,3.27,3.27,0,0,1-.64-.4,2.76,2.76,0,0,1-.53-.55L18,7.12a2.37,2.37,0,0,0,.78.76,2.21,2.21,0,0,0,1.17.3,2.25,2.25,0,0,0,.66-.1,1.9,1.9,0,0,0,.6-.31,1.75,1.75,0,0,0,.45-.52,1.46,1.46,0,0,0,.17-.71,1.5,1.5,0,0,0-.17-.74,1.69,1.69,0,0,0-.47-.49A2.91,2.91,0,0,0,20.48,5c-.24-.09-.5-.18-.78-.26s-.55-.19-.82-.3A3,3,0,0,1,18.14,4a2,2,0,0,1-.52-.67,2.18,2.18,0,0,1-.2-1,2.1,2.1,0,0,1,.25-1.06,2.25,2.25,0,0,1,.64-.73,2.86,2.86,0,0,1,.88-.42A3.45,3.45,0,0,1,20.14,0a3.19,3.19,0,0,1,1.47.31,2.51,2.51,0,0,1,.93.72Z"/></g></g></svg>